<svg width="104" height="104" viewBox="0 0 104 104" fill="none" xmlns="http://www.w3.org/2000/svg">
<path d="M89.3817 20.9966H14.6182C13.9133 20.9974 13.2375 21.2779 12.7391 21.7764C12.2407 22.275 11.9605 22.9509 11.96 23.6559V29.0056C11.96 29.2521 12.2272 29.535 12.4456 29.6494L51.7431 52.0957C51.8437 52.1532 51.9579 52.183 52.0738 52.182C52.1923 52.1824 52.3087 52.1507 52.4108 52.0905L90.5205 29.6712C90.7348 29.5516 91.3026 29.2355 91.5158 29.0899C91.7737 28.9141 92.04 28.755 92.04 28.4399V23.6548C92.0391 22.9501 91.7588 22.2744 91.2605 21.7761C90.7621 21.2777 90.0865 20.9974 89.3817 20.9966Z" fill="#FFEDED"/>
<path d="M91.7082 37.0719C91.6059 37.0135 91.49 36.9832 91.3722 36.9839C91.2545 36.9846 91.139 37.0164 91.0374 37.076L69.4709 49.7651C69.385 49.8151 69.3114 49.8839 69.2557 49.9663C69.2 50.0487 69.1635 50.1426 69.149 50.241C69.1345 50.3394 69.1424 50.4398 69.172 50.5347C69.2016 50.6297 69.2523 50.7167 69.3201 50.7895L90.8897 74.0407C90.9515 74.1079 91.0266 74.1614 91.1102 74.1979C91.1938 74.2345 91.2842 74.2532 91.3754 74.2529C91.5516 74.2526 91.7204 74.1825 91.845 74.0579C91.9696 73.9334 92.0397 73.7645 92.04 73.5883V37.6491C92.0404 37.5321 92.01 37.4172 91.9517 37.3158C91.8935 37.2145 91.8095 37.1303 91.7082 37.0719Z" fill="#FFEDED"/>
<path d="M63.2559 54.0261C63.1535 53.9146 63.016 53.8416 62.8663 53.8193C62.7165 53.7969 62.5637 53.8266 62.4332 53.9034L53.7888 58.99C53.2823 59.2827 52.7084 59.4385 52.1235 59.4424C51.5386 59.4462 50.9627 59.2978 50.4524 59.0119L42.8448 54.6657C42.722 54.5957 42.5801 54.5667 42.4397 54.5828C42.2993 54.5989 42.1676 54.6592 42.0638 54.7551L13.1747 81.5518C13.0989 81.6226 13.0408 81.7101 13.0049 81.8073C12.9689 81.9046 12.9562 82.0089 12.9677 82.1119C12.9793 82.215 13.0147 82.3139 13.0712 82.4008C13.1277 82.4877 13.2037 82.5602 13.2932 82.6126C13.7425 82.8767 14.1762 83.0026 14.6172 83.0026H88.6163C88.7458 83.0028 88.8725 82.965 88.9807 82.8938C89.0888 82.8226 89.1737 82.7212 89.2247 82.6022C89.2766 82.4838 89.2926 82.3529 89.2708 82.2255C89.249 82.0981 89.1903 81.9799 89.102 81.8856L63.2559 54.0261Z" fill="#FFEDED"/>
<path d="M35.7073 51.5851C35.7838 51.5143 35.8427 51.4266 35.879 51.3289C35.9154 51.2313 35.9282 51.1264 35.9166 51.0229C35.905 50.9193 35.8691 50.82 35.812 50.7328C35.7549 50.6456 35.678 50.5732 35.5877 50.5212L12.9511 37.5919C12.8501 37.5345 12.7358 37.5047 12.6196 37.5054C12.5034 37.5061 12.3895 37.5372 12.2891 37.5958C12.1888 37.6543 12.1056 37.7382 12.0478 37.839C11.99 37.9398 11.9598 38.054 11.96 38.1701V72.0949C11.9592 72.2245 11.9965 72.3514 12.0672 72.46C12.1379 72.5686 12.2388 72.6541 12.3576 72.7059C12.4764 72.7577 12.6077 72.7735 12.7354 72.7514C12.863 72.7294 12.9814 72.6703 13.0759 72.5816L35.7073 51.5851Z" fill="#FFEDED"/>
</svg>
