<svg width="104" height="104" viewBox="0 0 104 104" fill="none" xmlns="http://www.w3.org/2000/svg">
<path d="M94.5644 44.9091C94.5644 45.536 94.3154 46.1372 93.8721 46.5805C93.4288 47.0238 92.8276 47.2728 92.2007 47.2728H11.8182C11.1913 47.2728 10.5901 47.0238 10.1469 46.5805C9.70359 46.1372 9.45456 45.536 9.45456 44.9091C9.45456 44.2473 9.71929 43.5855 10.2109 43.1128L50.2793 10.4568L50.4306 10.3055C50.8897 9.88735 51.496 9.66843 52.1164 9.69679C52.7368 9.72515 53.3206 9.99847 53.7397 10.4568L75.6364 28.3259V14.1819C75.6364 12.9281 76.1344 11.7257 77.021 10.8392C77.9075 9.95264 79.1099 9.45459 80.3637 9.45459C81.6174 9.45459 82.8198 9.95264 83.7063 10.8392C84.5929 11.7257 85.0909 12.9281 85.0909 14.1819V36.0219L93.7891 43.1128C94.2807 43.5855 94.5549 44.2379 94.5455 44.9091H94.5644ZM18.9091 92.2008C18.9066 92.5087 18.9648 92.8141 19.0803 93.0995C19.1959 93.3849 19.3665 93.6448 19.5825 93.8643C19.7984 94.0838 20.0555 94.2586 20.3391 94.3787C20.6226 94.4988 20.927 94.5619 21.2349 94.5644H47.2822V75.6553H56.7367V94.5644H82.7557C83.3775 94.5644 83.9739 94.3174 84.4136 93.8777C84.8534 93.4379 85.1004 92.8415 85.1004 92.2197V56.7368H18.9091V92.1913V92.2008Z" fill="white"/>
</svg>
