<svg width="100" height="100" viewBox="0 0 100 100" fill="none" xmlns="http://www.w3.org/2000/svg">
<circle cx="50" cy="50" r="50" fill="url(#paint0_linear)"/>
<path d="M33.102 40.794C34.6473 41.8833 35.8507 43.378 36.712 45.278C37.5733 47.178 38.004 49.3313 38.004 51.738C38.004 54.1447 37.5733 56.336 36.712 58.312C35.8507 60.288 34.6473 61.8333 33.102 62.948C32.114 63.6573 30.974 64.1767 29.682 64.506C28.4153 64.8353 26.8573 65 25.008 65H14.9V64.696L18.016 64.392V39.388L14.9 39.084V38.78H25.008C28.4533 38.78 31.1513 39.4513 33.102 40.794ZM31.734 62.302C32.5447 61.2633 33.178 59.794 33.634 57.894C34.1153 55.9687 34.356 53.8533 34.356 51.548C34.356 49.2933 34.128 47.3047 33.672 45.582C33.2413 43.8593 32.5953 42.4913 31.734 41.478C31.0247 40.642 30.1507 40.0593 29.112 39.73C28.0733 39.4007 26.5913 39.236 24.666 39.236H20.942V64.544H24.666C26.6927 64.544 28.2127 64.3793 29.226 64.05C30.2393 63.7207 31.0753 63.138 31.734 62.302ZM53.8159 57.932L54.1579 57.172L43.9739 51.852L54.1199 46.456L53.7779 45.848L43.4419 51.244V52.498L53.8159 57.932ZM60.6122 65H61.4862L69.4662 38.78H68.5922L60.6122 65ZM76.3136 45.848L75.9716 46.456L86.1176 51.852L75.9336 57.172L76.2756 57.932L86.6496 52.498V51.244L76.3136 45.848Z" fill="white"/>
<defs>
<linearGradient id="paint0_linear" x1="0" y1="50" x2="100" y2="50" gradientUnits="userSpaceOnUse">
<stop stop-color="#000428"/>
<stop offset="1" stop-color="#004E92"/>
</linearGradient>
</defs>
</svg>
