<svg width="60" height="60" viewBox="0 0 60 60" fill="none" xmlns="http://www.w3.org/2000/svg">
<path d="M29.4672 4.47071C15.2584 4.4648 3.75 16.2803 3.75 30.8637C3.75 42.3959 10.9492 52.1988 20.9752 55.7989C22.3254 56.1471 22.1186 55.1615 22.1186 54.4887V49.9148C14.3218 50.8532 14.0058 45.5534 13.483 44.6681C12.4258 42.8149 9.92649 42.3428 10.6734 41.4575C12.4488 40.5191 14.2586 41.6936 16.3558 44.8746C17.8726 47.1823 20.8316 46.7927 22.3312 46.4091C22.6587 45.0222 23.3596 43.7828 24.3249 42.8208C16.2466 41.3335 12.8797 36.2698 12.8797 30.2499C12.8797 27.3285 13.8162 24.6432 15.6548 22.4772C14.4827 18.9066 15.764 15.8494 15.9363 15.395C19.2745 15.0881 22.7448 17.8502 23.0149 18.0685C24.9109 17.5433 27.077 17.2659 29.5016 17.2659C31.9378 17.2659 34.1096 17.5551 36.0229 18.0862C36.6721 17.5787 39.8896 15.2061 42.9922 15.4953C43.1588 15.9498 44.4114 18.9361 43.3082 22.4595C45.1698 24.6314 46.1178 27.3403 46.1178 30.2676C46.1178 36.2993 42.7279 41.369 34.6267 42.8326C35.3206 43.5336 35.8715 44.3695 36.2474 45.2917C36.6232 46.2138 36.8165 47.2036 36.8157 48.2033V54.8428C36.8617 55.374 36.8157 55.8993 37.6776 55.8993C47.853 52.3759 55.1786 42.5021 55.1786 30.8696C55.1786 16.2803 43.6645 4.47071 29.4672 4.47071Z" fill="white"/>
</svg>
