<svg width="60" height="60" viewBox="0 0 60 60" fill="none" xmlns="http://www.w3.org/2000/svg">
<path d="M11.7639 0.0149994C5.30083 0.0149994 0.0112305 5.30448 0.0112305 11.7676V48.2381C0.0112305 54.7011 5.30071 59.9888 11.7639 59.9888H48.2343C54.6974 59.9888 59.985 54.7012 59.985 48.2381V11.7676C59.985 5.3046 54.6974 0.0149994 48.2343 0.0149994H11.7639ZM14.7198 9.91188C17.8187 9.91188 19.7275 11.9462 19.7864 14.6204C19.7864 17.2355 17.8186 19.327 14.6599 19.327H14.6017C11.5618 19.327 9.59702 17.2356 9.59702 14.6204C9.59702 11.9463 11.6213 9.91188 14.7198 9.91188H14.7198ZM41.4246 22.4105C47.3844 22.4105 51.852 26.3058 51.852 34.6766V50.3036H42.7949V35.7244C42.7949 32.0608 41.484 29.5613 38.2063 29.5613C35.7041 29.5613 34.2126 31.246 33.5577 32.8734C33.3185 33.4556 33.2597 34.2688 33.2597 35.0833V50.3036H24.2025C24.2025 50.3036 24.3214 25.6068 24.2025 23.0496H33.2616V26.909C34.4652 25.052 36.6181 22.4104 41.4246 22.4104V22.4105ZM10.1313 23.0516H19.1884V50.3037H10.1313V23.0516Z" fill="white"/>
</svg>
