<svg width="1655" height="1075" viewBox="0 0 1655 1075" fill="none" xmlns="http://www.w3.org/2000/svg">
<path d="M145.459 568.441C120.166 415.027 63.1709 401.594 19.3879 324.127C-20.4447 253.81 -52.3467 138.52 60.0521 56.0684C234.748 -71.9249 448.851 59.2452 448.851 59.2452C448.851 59.2452 788.138 235.159 847.442 244.125C906.746 253.091 1051.68 342.525 1232.95 235.386C1414.23 128.246 1569.08 137.261 1618.47 217.71C1667.85 298.159 1555.7 530.437 1529.32 578.082C1502.94 625.728 1542.4 774.681 1585.2 834.276C1628.01 893.871 1763 1078.62 1473.05 1072.51C1183.1 1066.41 313.242 1074.9 313.242 1074.9C313.242 1074.9 0.886096 1069.38 56.3807 794.774C102.626 565.441 155.313 628.019 145.459 568.441Z" fill="url(#paint0_linear)"/>
<defs>
<linearGradient id="paint0_linear" x1="-17.587" y1="537.298" x2="1654.28" y2="538.15" gradientUnits="userSpaceOnUse">
<stop stop-color="#DF658A"/>
<stop offset="1" stop-color="#FFC3A0"/>
</linearGradient>
</defs>
</svg>
