<svg width="60" height="60" viewBox="0 0 60 60" fill="none" xmlns="http://www.w3.org/2000/svg">
<g clip-path="url(#clip0)">
<path d="M59.9991 7.10718C58.3282 10.1667 56.2784 12.7747 53.8495 14.9314C53.8735 15.5098 53.8855 16.1635 53.8855 16.8926C53.8855 20.9435 53.4057 24.9993 52.4462 29.06C51.4867 33.1208 50.0211 37.0077 48.0493 40.7206C46.0774 44.4336 43.7287 47.7229 41.0029 50.5887C38.2771 53.4545 35.0006 55.7395 31.1734 57.4437C27.3462 59.1479 23.2444 60.0001 18.8681 60.0001C12.0382 60.0001 5.74848 57.7302 -0.000976562 53.1905C1.01948 53.3303 1.99819 53.4002 2.93515 53.4002C8.641 53.4002 13.7372 51.2366 18.2239 46.9096C15.5635 46.8495 13.1809 45.8413 11.0761 43.885C8.97137 41.9287 7.52292 39.429 6.73078 36.3857C7.51375 36.5693 8.28652 36.6611 9.04909 36.6611C10.1468 36.6611 11.2268 36.4849 12.2893 36.1324C9.45021 35.4324 7.09491 33.6916 5.22344 30.91C3.35203 28.1285 2.41632 24.918 2.41632 21.2786V21.0911C4.159 22.2789 6.01783 22.9108 7.99282 22.9866C6.31094 21.6063 4.97747 19.8063 3.99239 17.5867C3.00725 15.367 2.51468 12.965 2.51468 10.3805C2.51468 7.65482 3.0695 5.11666 4.17916 2.76606C7.26666 7.43034 11.0078 11.1582 15.4026 13.9496C19.7975 16.741 24.5124 18.2913 29.5472 18.6004C29.3325 17.4987 29.2249 16.349 29.2245 15.1513C29.2245 10.9695 30.4267 7.3988 32.8309 4.43928C35.2352 1.47976 38.1358 0 41.5328 0C45.0893 0 48.085 1.59422 50.5198 4.78266C53.3018 4.1043 55.9066 2.87732 58.3343 1.10172C57.399 4.72532 55.5967 7.52068 52.9275 9.4878C55.3808 9.12892 57.7379 8.33538 59.9989 7.10718H59.9991Z" fill="white"/>
</g>
<defs>
<clipPath id="clip0">
<rect width="60" height="60" fill="white"/>
</clipPath>
</defs>
</svg>
