<svg width="1295" height="722" viewBox="0 0 1295 722" fill="none" xmlns="http://www.w3.org/2000/svg">
<g clip-path="url(#clip0)">
<path d="M110.842 381.134C91.5577 278.094 48.1165 269.07 14.7424 217.037C-15.6205 169.808 -39.9409 92.3732 45.7234 37.0007C178.867 -48.9565 342.058 39.1523 342.058 39.1523C342.058 39.1523 600.664 157.319 645.865 163.343C691.065 169.368 801.533 229.442 939.692 157.491C1077.85 85.5407 1195.88 91.6026 1233.52 145.638C1271.16 199.673 1185.7 355.674 1165.59 387.674C1145.49 419.673 1175.57 519.717 1208.2 559.746C1240.83 599.774 1343.73 723.863 1122.73 719.749C901.738 715.635 238.746 721.299 238.746 721.299C238.746 721.299 0.675053 717.576 42.9592 533.144C78.1962 379.117 118.356 421.15 110.842 381.134Z" fill="url(#paint0_linear)"/>
</g>
<defs>
<linearGradient id="paint0_linear" x1="-13.4293" y1="360.21" x2="1260.84" y2="360.859" gradientUnits="userSpaceOnUse">
<stop stop-color="#DF658A"/>
<stop offset="1" stop-color="#FFC3A0"/>
</linearGradient>
<clipPath id="clip0">
<rect width="1294.63" height="722.011" fill="white" transform="translate(0.36792 -0.65979) rotate(0.0291988)"/>
</clipPath>
</defs>
</svg>
