<svg width="1920" height="627" viewBox="0 0 1920 627" fill="none" xmlns="http://www.w3.org/2000/svg">
<path fill-rule="evenodd" clip-rule="evenodd" d="M0 313.5L64 278.667C128 243.833 256 174.167 384 156.75C512 139.333 640 174.167 768 226.417C896 278.667 1024 348.333 1152 330.917C1280 313.5 1408 209 1536 139.333C1664 69.6667 1792 34.8333 1856 17.4167L1920 0V627H1856C1792 627 1664 627 1536 627C1408 627 1280 627 1152 627C1024 627 896 627 768 627C640 627 512 627 384 627C256 627 128 627 64 627H0V313.5Z" fill="#FBB4AE"/>
</svg>
